# xmcd
#
# Track frame offsets:
#	150
#	10486
#	20922
#	30504
#	42422
#	53513
#	63616
#	73150
#	82663
#	94174
#	103186
#	113919
#	123057
#	134305
#	143179
#
# Disc length: 2023 seconds
#
# Revision: 0
# Processed by: cddbd v1.5.2PL0 Copyright (c) Steve Scherf et al.
# Submitted via: dBpowerAMP V4.0
#
DISCID=cd07e50f
DTITLE=Rockin´Bonnie and The Rot Gut Shots - Cocktail Jubilee
DYEAR=2009
DGENRE=
TTITLE0=Bell Bottom Boogie
TTITLE1=Gotta Honky Tonk
TTITLE2=What Am I Worth
TTITLE3=Kitty Kat Corner
TTITLE4=All Of This
TTITLE5=Burnin'
TTITLE6=I'm Hurtin' Again
TTITLE7=I Love Booze
TTITLE8=I Wanna Make Love
TTITLE9=I Heard About You
TTITLE10=I Start Messin' Around
TTITLE11=Juke Box Blues
TTITLE12=Papa Boogie
TTITLE13=Bring Along Your Lovin'
TTITLE14=Time's A Waistin'
EXTD=
EXTT0=
EXTT1=
EXTT2=
EXTT3=
EXTT4=
EXTT5=
EXTT6=
EXTT7=
EXTT8=
EXTT9=
EXTT10=
EXTT11=
EXTT12=
EXTT13=
EXTT14=
PLAYORDER=
